<svg width="440" height="251" xmlns="http://www.w3.org/2000/svg" xmlns:xlink="http://www.w3.org/1999/xlink" overflow="hidden"><defs><clipPath id="clip0"><rect x="491" y="179" width="440" height="251"/></clipPath></defs><g clip-path="url(#clip0)" transform="translate(-491 -179)"><path d="M564.865 213.431 633.572 195.021 657.338 283.718 588.631 302.128Z" fill="#FFC000" fill-rule="evenodd"/><text fill="#FFFFFF" font-family="Baskerville Old Face,Baskerville Old Face_MSFontService,sans-serif" font-weight="400" font-size="59" transform="matrix(0.965926 -0.258819 0.258819 0.965926 597.373 272)">Y</text><path d="M638.918 210.811 707.625 192.401 731.391 281.098 662.684 299.508Z" fill="#FFC000" fill-rule="evenodd"/><text fill="#FFFFFF" font-family="Baskerville Old Face,Baskerville Old Face_MSFontService,sans-serif" font-weight="400" font-size="59" transform="matrix(0.965926 -0.258819 0.258819 0.965926 667.079 270)">O</text><path d="M715.416 215.344 784.122 196.934 807.889 285.631 739.182 304.041Z" fill="#FFC000" fill-rule="evenodd"/><text fill="#FFFFFF" font-family="Baskerville Old Face,Baskerville Old Face_MSFontService,sans-serif" font-weight="400" font-size="59" transform="matrix(0.965926 -0.258819 0.258819 0.965926 745.187 274)">U</text><path d="M792.754 221.842 861.461 203.433 885.227 292.13 816.52 310.54Z" fill="#FFC000" fill-rule="evenodd"/><text fill="#FFFFFF" font-family="Baskerville Old Face,Baskerville Old Face_MSFontService,sans-serif" font-weight="400" font-size="59" transform="matrix(0.965926 -0.258819 0.258819 0.965926 825.503 280)">R</text><path d="M512.367 309.61 581.074 291.2 604.841 379.897 536.134 398.307Z" fill="#0070C0" fill-rule="evenodd"/><text fill="#FFFFFF" font-family="Baskerville Old Face,Baskerville Old Face_MSFontService,sans-serif" font-weight="400" font-size="59" transform="matrix(0.965926 -0.258819 0.258819 0.965926 544.393 368)">B</text><path d="M586.42 304.323 655.127 285.913 678.894 374.61 610.187 393.02Z" fill="#0070C0" fill-rule="evenodd"/><text fill="#FFFFFF" font-family="Baskerville Old Face,Baskerville Old Face_MSFontService,sans-serif" font-weight="400" font-size="59" transform="matrix(0.965926 -0.258819 0.258819 0.965926 614.582 364)">O</text><path d="M661.585 302.189 730.292 283.779 754.058 372.476 685.351 390.886Z" fill="#0070C0" fill-rule="evenodd"/><text fill="#FFFFFF" font-family="Baskerville Old Face,Baskerville Old Face_MSFontService,sans-serif" font-weight="400" font-size="59" transform="matrix(0.965926 -0.258819 0.258819 0.965926 689.746 362)">O</text><path d="M738.923 306.021 807.63 287.611 831.396 376.308 762.689 394.718Z" fill="#0070C0" fill-rule="evenodd"/><text fill="#FFFFFF" font-family="Baskerville Old Face,Baskerville Old Face_MSFontService,sans-serif" font-weight="400" font-size="59" transform="matrix(0.965926 -0.258819 0.258819 0.965926 769.982 365)">K</text><path d="M816.72 312.644 885.427 294.234 909.193 382.931 840.486 401.341Z" fill="#0070C0" fill-rule="evenodd"/><text fill="#FFFFFF" font-family="Baskerville Old Face,Baskerville Old Face_MSFontService,sans-serif" font-weight="400" font-size="59" transform="matrix(0.965926 -0.258819 0.258819 0.965926 853.172 370)">S</text></g></svg>